<svg width="17" height="19" viewBox="0 0 17 19" fill="none" xmlns="http://www.w3.org/2000/svg">
<path d="M9.41802 14.3395C13.0532 14.3395 16.0001 11.3533 16.0001 7.66973C16.0001 3.98614 13.0532 1 9.41802 1C5.78283 1 2.83594 3.98614 2.83594 7.66973C2.83594 11.3533 5.78283 14.3395 9.41802 14.3395Z" stroke="white" stroke-width="1.34196" stroke-miterlimit="10"/>
<path d="M4.76604 12.8877L5.35889 13.2326L4.16431 14.6947L3.65652 14.3279L4.76604 12.8877Z" fill="white"/>
<path d="M0.498234 18.5428C-0.0552573 18.145 -0.164432 17.401 0.255764 16.8882L2.27042 14.4302C2.69062 13.9174 3.48785 13.8231 4.04134 14.2209C4.59483 14.6187 4.70401 15.3627 4.28381 15.8755L2.26915 18.3336C1.84896 18.8451 1.05173 18.9394 0.498234 18.5428Z" fill="white"/>
</svg>
