<svg width="40" height="38" viewBox="0 0 40 38" fill="none" xmlns="http://www.w3.org/2000/svg">
<path d="M38.2638 13.9735L35.7124 16.5249L27.8297 8.63805C25.6988 6.50714 23.2045 6.56021 20.9838 8.77684L16.9547 12.8101C16.7997 12.9662 16.6153 13.0899 16.412 13.174C16.2088 13.2581 15.9908 13.3009 15.7708 13.2999V13.2999C15.4397 13.3001 15.116 13.202 14.8406 13.0181C14.5652 12.8342 14.3506 12.5727 14.2239 12.2668C14.0971 11.9609 14.064 11.6243 14.1286 11.2995C14.1933 10.9747 14.3528 10.6765 14.587 10.4424L20.7797 4.23743C21.4748 3.53824 22.3019 2.98407 23.2129 2.60705C24.1239 2.23004 25.1006 2.03771 26.0866 2.04121H33.108C33.3786 2.04121 33.6382 1.93368 33.8296 1.74229C34.021 1.5509 34.1285 1.29132 34.1285 1.02066C34.1285 0.749989 34.021 0.490408 33.8296 0.299017C33.6382 0.107627 33.3786 0.000104953 33.108 0.000104953H26.0784C23.9323 -0.00999921 21.8465 0.709741 20.1633 2.04121C19.2153 1.14602 17.9924 0.59786 16.6934 0.485887C16.0198 0.451818 15.3468 0.563671 14.7205 0.813791C14.0941 1.06391 13.5292 1.44639 13.0643 1.93507L12.7378 2.26165L10.7906 0.314435C10.5989 0.122802 10.339 0.0151447 10.068 0.0151447C9.79699 0.0151447 9.53708 0.122802 9.34545 0.314435C9.15382 0.506067 9.04616 0.765976 9.04616 1.03698C9.04616 1.30799 9.15382 1.5679 9.34545 1.75953L12.0152 4.4293C12.11 4.52434 12.2226 4.59974 12.3466 4.65119C12.4706 4.70264 12.6035 4.72912 12.7378 4.72912C12.872 4.72912 13.0049 4.70264 13.1289 4.65119C13.2529 4.59974 13.3655 4.52434 13.4603 4.4293L14.5094 3.38017C14.7741 3.1027 15.0959 2.886 15.4525 2.74504C15.8092 2.60408 16.1922 2.54222 16.575 2.56373C17.3535 2.64047 18.0872 2.96368 18.6692 3.48631L13.146 9.00136C12.6272 9.52087 12.274 10.1824 12.131 10.9025C11.988 11.6226 12.0616 12.369 12.3424 13.0473C12.6233 13.7256 13.0988 14.3055 13.709 14.7138C14.3192 15.122 15.0367 15.3403 15.7708 15.341V15.341C16.2585 15.3433 16.7418 15.2485 17.1925 15.062C17.6431 14.8756 18.0521 14.6013 18.3957 14.2552L22.4248 10.226C23.8618 8.78909 25.0456 8.74827 26.3846 10.0872L35.8879 19.5824C36.201 19.8969 36.3768 20.3225 36.3768 20.7663C36.3768 21.21 36.201 21.6357 35.8879 21.9501C35.7329 22.1061 35.5484 22.2297 35.3451 22.3137C35.1419 22.3978 34.924 22.4407 34.7041 22.44V22.44C34.2581 22.4425 33.8293 22.2678 33.5121 21.9542V21.9542L30.2055 18.6884C30.1109 18.5914 29.998 18.5142 29.8733 18.4614C29.7486 18.4085 29.6146 18.3809 29.4791 18.3804C29.3436 18.3798 29.2094 18.4062 29.0843 18.4581C28.9591 18.5099 28.8455 18.5861 28.7501 18.6823C28.6548 18.7785 28.5795 18.8928 28.5287 19.0184C28.4779 19.1439 28.4526 19.2784 28.4544 19.4138C28.4561 19.5493 28.4847 19.6831 28.5387 19.8073C28.5926 19.9316 28.6708 20.0439 28.7686 20.1376L33.8387 25.1587C34.1518 25.4732 34.3276 25.8988 34.3276 26.3426C34.3276 26.7863 34.1518 27.212 33.8387 27.5264C33.6832 27.6825 33.4984 27.8064 33.2949 27.891C33.0913 27.9755 32.8732 28.019 32.6528 28.019C32.4324 28.019 32.2142 27.9755 32.0107 27.891C31.8072 27.8064 31.6224 27.6825 31.4669 27.5264L31.1158 27.1835L31.026 27.0978L27.0745 23.2197C26.8803 23.0347 26.6212 22.9336 26.3531 22.9381C26.085 22.9427 25.8295 23.0526 25.6417 23.2441C25.454 23.4356 25.3492 23.6932 25.3499 23.9614C25.3507 24.2295 25.4569 24.4866 25.6457 24.677L29.6381 28.5878C29.7903 28.7456 29.91 28.932 29.9902 29.1361C30.0705 29.3402 30.1097 29.5581 30.1057 29.7774C30.1018 29.9967 30.0546 30.2131 29.967 30.4141C29.8794 30.6152 29.7531 30.7971 29.5952 30.9493C29.4373 31.1016 29.251 31.2212 29.0469 31.3015C28.8428 31.3817 28.6249 31.421 28.4056 31.417C28.1863 31.413 27.9699 31.3659 27.7688 31.2783C27.5678 31.1907 27.3859 31.0643 27.2337 30.9065L27.1684 30.8534L27.0581 30.7309L24.3475 28.0203C24.1559 27.8287 23.896 27.7211 23.625 27.7211C23.354 27.7211 23.0941 27.8287 22.9024 28.0203C22.7108 28.212 22.6032 28.4719 22.6032 28.7429C22.6032 29.0139 22.7108 29.2738 22.9024 29.4654L25.613 32.176C25.8541 32.4031 26.0205 32.6981 26.09 33.022C26.1595 33.3458 26.1289 33.6831 26.0022 33.9891C25.8755 34.2951 25.6588 34.5554 25.3808 34.7354C25.1028 34.9154 24.7766 35.0066 24.4455 34.9968C24.227 34.9986 24.0104 34.9566 23.8084 34.8731C23.6065 34.7897 23.4233 34.6666 23.2698 34.511L21.392 32.621C21.2779 32.5065 21.1379 32.421 20.9838 32.372C21.2214 31.815 21.3189 31.2083 21.2678 30.6049C21.2167 30.0016 21.0186 29.4199 20.6907 28.9108C20.3629 28.4017 19.9153 27.9807 19.3871 27.6846C18.8589 27.3884 18.2663 27.2262 17.6609 27.2121C17.6609 27.11 17.6609 27.008 17.6609 26.9018C17.6617 26.4058 17.5628 25.9148 17.3701 25.4577C17.1774 25.0007 16.8949 24.587 16.5392 24.2413C16.1836 23.8956 15.7621 23.6248 15.2999 23.4451C14.8376 23.2654 14.3439 23.1804 13.8481 23.1952C13.8481 23.1625 13.8481 23.1258 13.8481 23.0931C13.8483 22.5973 13.749 22.1065 13.5562 21.6497C13.3633 21.1929 13.0807 20.7795 12.7252 20.4339C12.3697 20.0883 11.9485 19.8175 11.4864 19.6376C11.0244 19.4577 10.531 19.3723 10.0353 19.3865C10.0353 19.3538 10.0353 19.3212 10.0353 19.2844C10.0361 18.5654 9.82799 17.8617 9.43626 17.2588C9.04453 16.6558 8.48608 16.1797 7.82879 15.8883C7.17151 15.5968 6.44371 15.5026 5.73387 15.617C5.02404 15.7315 4.36275 16.0497 3.8304 16.533L1.74439 14.4429C1.55276 14.2513 1.29285 14.1436 1.02184 14.1436C0.750831 14.1436 0.490922 14.2513 0.29929 14.4429C0.107658 14.6346 0 14.8945 0 15.1655C0 15.4365 0.107658 15.6964 0.29929 15.888L2.38121 17.97L1.79338 18.5578C1.31483 19.0355 0.975909 19.6349 0.813228 20.2912C0.650548 20.9475 0.670291 21.6358 0.870325 22.2817C1.07036 22.9276 1.44308 23.5066 1.94822 23.9561C2.45337 24.4056 3.07173 24.7085 3.7365 24.8321C3.53275 25.4794 3.51038 26.1701 3.67181 26.8292C3.83324 27.4882 4.1723 28.0904 4.65211 28.5702C5.13192 29.0501 5.73411 29.3891 6.39318 29.5505C7.05226 29.712 7.74297 29.6896 8.39022 29.4859C8.54777 30.3384 8.99919 31.1088 9.66598 31.663C10.3328 32.2171 11.1727 32.52 12.0397 32.5189C12.344 32.5178 12.6469 32.4794 12.9419 32.4046C13.0715 33.2856 13.5142 34.0904 14.189 34.6715C14.8638 35.2525 15.7254 35.5709 16.6159 35.5683V35.5683C17.1045 35.5706 17.5887 35.4754 18.0401 35.2883C18.4916 35.1011 18.9011 34.8258 19.2448 34.4784L19.8245 33.8987C19.8623 33.9575 19.9061 34.0122 19.9551 34.062L21.8452 35.9521C22.1871 36.2955 22.5936 36.5679 23.0413 36.7536C23.489 36.9393 23.969 37.0345 24.4537 37.0338V37.0338C25.4176 37.034 26.3429 36.6553 27.0302 35.9795C27.7174 35.3037 28.1116 34.3848 28.1277 33.4211C28.2216 33.4211 28.3114 33.4211 28.4053 33.4211C29.3403 33.4227 30.2413 33.0705 30.9273 32.4352C31.6134 31.7999 32.0336 30.9285 32.1037 29.9961C32.2821 30.0227 32.4622 30.0363 32.6426 30.037V30.037C33.3079 30.0349 33.9604 29.8542 34.532 29.5138C35.1036 29.1733 35.5733 28.6857 35.892 28.1017C36.2107 27.5177 36.3667 26.8588 36.3437 26.1939C36.3207 25.529 36.1196 24.8825 35.7614 24.3219C36.3759 24.1357 36.9317 23.7935 37.3747 23.3288C37.8177 22.864 38.1329 22.2925 38.2895 21.6698C38.4461 21.0471 38.4388 20.3945 38.2683 19.7755C38.0978 19.1564 37.77 18.5921 37.3167 18.1373L37.1493 17.9659L39.7007 15.4145C39.8923 15.2229 40 14.963 40 14.692C40 14.4209 39.8923 14.161 39.7007 13.9694C39.5091 13.7778 39.2492 13.6701 38.9782 13.6701C38.7072 13.6701 38.4472 13.7778 38.2556 13.9694L38.2638 13.9735ZM3.23439 20.0029L5.14078 18.1169C5.29398 17.9528 5.47864 17.8211 5.68377 17.7298C5.88889 17.6385 6.11029 17.5894 6.33479 17.5855C6.55928 17.5815 6.78227 17.6228 6.9905 17.7068C7.19872 17.7908 7.38791 17.9158 7.54682 18.0744C7.70572 18.233 7.83108 18.422 7.91543 18.6301C7.99979 18.8382 8.04142 19.0611 8.03784 19.2856C8.03426 19.5101 7.98555 19.7316 7.8946 19.9369C7.80366 20.1421 7.67234 20.327 7.50846 20.4805L7.06758 20.9214L5.59391 22.3787C5.27552 22.674 4.85483 22.834 4.42069 22.8249C3.98655 22.8158 3.57295 22.6383 3.26723 22.3299C2.9615 22.0215 2.7876 21.6064 2.78223 21.1722C2.77687 20.738 2.94047 20.3187 3.23848 20.0029H3.23439ZM6.09194 27.1345C5.77884 26.8201 5.60305 26.3944 5.60305 25.9507C5.60305 25.5069 5.77884 25.0813 6.09194 24.7668L7.02676 23.832L8.46778 22.391L8.93315 21.9256C9.24712 21.6116 9.67296 21.4353 10.117 21.4353C10.561 21.4353 10.9869 21.6116 11.3008 21.9256C11.6148 22.2396 11.7912 22.6654 11.7912 23.1095C11.7912 23.5535 11.6148 23.9793 11.3008 24.2933V24.2933L11.0151 24.579L9.38219 26.2119L8.4392 27.1549C8.12314 27.4583 7.70071 27.6257 7.26261 27.6211C6.82451 27.6166 6.40566 27.4404 6.09602 27.1304L6.09194 27.1345ZM12.0397 30.4819C11.7079 30.4837 11.383 30.3868 11.1064 30.2035C10.8298 30.0202 10.6139 29.7588 10.4861 29.4526C10.3584 29.1463 10.3245 28.809 10.3889 28.4835C10.4533 28.158 10.613 27.8589 10.8477 27.6244L12.5092 25.9629L12.7582 25.7139C12.9114 25.5498 13.096 25.4181 13.3012 25.3268C13.5063 25.2355 13.7277 25.1864 13.9522 25.1825C14.1767 25.1785 14.3997 25.2197 14.6079 25.3037C14.8161 25.3877 15.0053 25.5128 15.1642 25.6714C15.3231 25.83 15.4485 26.019 15.5328 26.2271C15.6172 26.4352 15.6588 26.6581 15.6552 26.8826C15.6517 27.1071 15.6029 27.3286 15.512 27.5338C15.421 27.7391 15.2897 27.924 15.1259 28.0775V28.0775L14.9258 28.2775L13.9869 29.2164L13.2399 29.9635C13.0848 30.1194 12.9003 30.243 12.6971 30.3271C12.4939 30.4112 12.276 30.4541 12.056 30.4533L12.0397 30.4819ZM18.7304 32.1148L17.7956 33.0537C17.6405 33.2096 17.456 33.3332 17.2528 33.4173C17.0496 33.5014 16.8317 33.5443 16.6118 33.5436V33.5436C16.2803 33.5445 15.956 33.447 15.68 33.2634C15.404 33.0798 15.1887 32.8184 15.0615 32.5123C14.9343 32.2063 14.9008 31.8693 14.9653 31.5441C15.0298 31.219 15.1894 30.9203 15.4239 30.686L16.3709 29.739C16.6883 29.4427 17.1084 29.2814 17.5425 29.2891C17.9766 29.2967 18.3907 29.4728 18.6974 29.7801C19.0042 30.0873 19.1795 30.5017 19.1864 30.9358C19.1933 31.3699 19.0313 31.7897 18.7345 32.1066L18.7304 32.1148Z" fill="black"/>
</svg>
