<svg width="284" height="276" viewBox="0 0 284 276" fill="none" xmlns="http://www.w3.org/2000/svg">
<path d="M197.191 73.1033C219.738 102.884 247.235 127.187 245.744 149.418C244.253 171.593 213.783 191.643 180.014 209.793C146.193 227.965 109.126 244.236 80.1271 234.043C51.1286 223.85 30.1875 187.085 24.1276 149.966C18.0678 112.846 26.7476 75.2798 48.449 45.7147C70.1504 16.1497 104.765 -5.55168 130.928 1.25726C157.09 8.06619 174.644 43.2699 197.191 73.1033Z" fill="#EEE5E0"/>
<path d="M153.616 151.468V244.653" stroke="#A4A4A4" stroke-width="1.11805" stroke-linecap="round" stroke-linejoin="round"/>
<path d="M194.314 53.7385H191.593C189.123 53.7385 187.121 55.7408 187.121 58.2107V65.6719C187.121 68.1418 189.123 70.1441 191.593 70.1441H194.314C196.784 70.1441 198.786 68.1418 198.786 65.6719V58.2107C198.786 55.7408 196.784 53.7385 194.314 53.7385Z" fill="#6BD5E1"/>
<path d="M147.989 253.087C147.576 254.12 144.754 260.452 144.754 260.452L153.87 263.925L156.591 254.876L147.989 253.087Z" fill="#E49D75"/>
<path d="M200.191 244.135L202.066 251.053L193.859 255.066L188.448 249.435L200.191 244.135Z" fill="#E49D75"/>
<path d="M188.429 111.594C187.494 112.675 179.746 121.97 179.19 122.704C178.635 123.438 155.95 130.333 154.753 130.653C153.557 130.974 149.256 132.844 148.045 132.844C146.834 132.844 142.947 131.559 141.337 131.823C139.727 132.088 134.587 135.095 135.083 136.295C135.579 137.496 191.064 133.489 191.064 133.489L197.113 114.665L188.429 111.594Z" fill="#D38D6A"/>
<path d="M199.312 198.433L185.213 271.062" stroke="#E0E0E0" stroke-width="0.745368" stroke-linecap="round" stroke-linejoin="round"/>
<path d="M251.267 79.9197H283.154L252.914 198.433H194.474V190.719L227.196 168.991L251.267 79.9197Z" fill="#E0E0E0"/>
<path d="M185.224 191.635C186.841 194.941 200.504 241.348 200.858 244.046C199.118 245.872 191.571 249.934 188.347 250.199C182.887 245.902 167.589 209.819 167.589 209.819C167.589 209.819 172.799 179.881 185.224 191.635Z" fill="#5FC5D1"/>
<path d="M251.018 147.427C252.203 148.836 256.038 169.628 256.608 175.006C257.484 183.459 241.097 195.839 217.964 195.839C210.328 195.839 185.045 194.136 177.781 191.393C177.409 195.988 159.095 253.3 157.019 255.375C153.609 256.266 148.567 254.414 147.307 253.139C146.047 251.865 156.058 172.692 158.86 167.579C161.663 162.465 218.766 158.623 218.766 158.623L251.018 147.427Z" fill="#6BD5E1"/>
<path d="M211.379 88.0815C222.101 94.3388 206.068 121.671 204.041 122.368C200.81 121.996 189.558 115.418 187.449 110.577C186.994 107.603 202.222 82.7335 211.379 88.0815Z" fill="#FFC78E"/>
<path d="M217.32 76.7368C235.242 76.7368 252.501 145.158 251.793 147.897C250.343 153.513 220.983 163.785 216.272 159.372C204.358 148.221 182.384 76.7368 217.32 76.7368Z" fill="#FFD98E"/>
<path d="M249.545 198.433L263.644 271.062" stroke="#E0E0E0" stroke-width="0.745368" stroke-linecap="round" stroke-linejoin="round"/>
<path d="M154.56 264.201L149.882 276L124.633 264.749L127.141 259.695L145.582 260.243L154.56 264.201Z" fill="black"/>
<path d="M202.218 250.199L208.424 261.271L183.763 273.764L181.426 268.624L193.486 254.667L202.218 250.199Z" fill="black"/>
<path d="M213.075 69.2014C213.481 71.4673 216.056 78.2986 217.174 79.5509C218.292 80.8031 212.273 88.1226 205.58 86.7809C205.379 84.4815 204.585 77.9707 203.534 76.8899C202.483 75.8091 213.075 69.2014 213.075 69.2014Z" fill="#D38D6A"/>
<path d="M207.163 76.8852C214.433 74.5129 217.715 64.5848 214.493 54.7102C211.27 44.8356 202.765 38.7538 195.495 41.1261C188.225 43.4985 184.943 53.4266 188.165 63.3012C191.388 73.1757 199.893 79.2575 207.163 76.8852Z" fill="#E49D75"/>
<path d="M190.303 33.405C197.727 33.405 216.805 46.5943 216.805 59.8656C216.805 66.9876 215.545 68.81 215.068 68.81C214.591 68.81 209.985 65.236 209.985 62.6682C209.985 60.1004 209.079 56.3027 208.196 56.3027C206.705 56.3027 206.485 57.9612 202.736 57.9612C201.301 57.9612 198.607 56.2506 198.607 54.2865C195.562 54.3387 195.562 55.3449 191.384 55.3449C186.651 55.3449 175.023 52.9523 175.023 49.2776C175.023 46.7881 178.27 45.0738 181.467 45.6812C179.302 44.5222 177.368 42.1296 177.368 40.5457C177.368 38.3282 180.163 36.7965 182.328 36.7965C184.896 36.7965 187.11 37.8772 188.216 38.9357C187.333 37.4077 188.205 33.405 190.303 33.405Z" fill="#FD8369"/>
<path d="M207.604 63.883C209.73 63.883 211.454 62.1594 211.454 60.0332C211.454 57.907 209.73 56.1833 207.604 56.1833C205.478 56.1833 203.754 57.907 203.754 60.0332C203.754 62.1594 205.478 63.883 207.604 63.883Z" fill="#E49D75"/>
<path d="M193.278 146.052H0V151.471H193.278V146.052Z" fill="#A4A4A4"/>
<path d="M176.652 137.25H96.637H96.4357H16.4205L0 146.004H96.4357H96.637H193.076L176.652 137.25Z" fill="#E0E0E0"/>
<path d="M24.3401 151.468V265.121" stroke="#A4A4A4" stroke-width="1.11805" stroke-linecap="round" stroke-linejoin="round"/>
<path d="M39.6575 151.468V244.653" stroke="#A4A4A4" stroke-width="1.11805" stroke-linecap="round" stroke-linejoin="round"/>
<path d="M168.938 151.468V265.121" stroke="#A4A4A4" stroke-width="1.11805" stroke-linecap="round" stroke-linejoin="round"/>
<path d="M148.254 137.857H113.985V140.205H148.254V137.857Z" fill="#A4A4A4"/>
<path d="M77.6637 134.935H71.1045V142.743H77.6637V134.935Z" fill="#A4A4A4"/>
<path d="M139.38 144.983C143.624 144.983 147.065 143.374 147.065 141.39C147.065 139.406 143.624 137.798 139.38 137.798C135.136 137.798 131.695 139.406 131.695 141.39C131.695 143.374 135.136 144.983 139.38 144.983Z" fill="#EEE5E0"/>
<path d="M193.893 115.328C192.775 116.547 185.932 126.386 185.194 127.426C169.541 129.252 148.857 134.272 148.097 134.298C147.337 134.324 138.638 131.507 137.472 131.712C136.305 131.917 133.92 136.098 134.021 136.959C134.122 137.82 140.971 141.957 148.857 141.852C150.348 141.752 150.836 140.939 152.383 140.939C153.93 140.939 189.279 143.671 195.413 140.466C198.749 138.718 208.122 125.536 208.122 124.549C208.122 123.561 193.893 115.328 193.893 115.328Z" fill="#E49D75"/>
<path d="M216.205 91.2714C226.924 97.5288 210.894 124.861 208.867 125.558C205.632 125.186 194.385 118.608 192.271 113.767C191.817 110.793 207.045 85.9234 216.205 91.2714Z" fill="#FFE4AD"/>
<path d="M68.6857 38.0413H65.5439V139.177H68.6857V38.0413Z" fill="#E0E0E0"/>
<path d="M68.6821 38.0413V88.607V139.177L83.5373 133.743V88.607V43.4713L68.6821 38.0413Z" fill="#A4A4A4"/>
<path d="M208.67 53.7385H205.949C203.479 53.7385 201.477 55.7408 201.477 58.2107V65.6719C201.477 68.1418 203.479 70.1441 205.949 70.1441H208.67C211.14 70.1441 213.142 68.1418 213.142 65.6719V58.2107C213.142 55.7408 211.14 53.7385 208.67 53.7385Z" fill="#6BD5E1"/>
<path d="M207.604 55.8068C207.604 53.7384 208.319 41.5554 201.477 37.959" stroke="#6BD5E1" stroke-width="2.2361" stroke-linecap="round" stroke-linejoin="round"/>
<path d="M207.309 70.144C207.309 71.3329 206.84 78.0748 201.719 78.0748" stroke="#A4A4A4" stroke-width="2.2361" stroke-linecap="round" stroke-linejoin="round"/>
</svg>
